<svg width="52" height="58" viewBox="0 0 52 58" fill="none" xmlns="http://www.w3.org/2000/svg">
<path d="M11.2256 30.0596V7.57422C11.2256 2.81348 13.667 0.396484 18.3545 0.396484H30.0732C32.4414 0.396484 33.7109 0.762695 35.2734 2.34961L49.6289 16.8516C51.2402 18.5117 51.582 19.6836 51.582 22.3203V45.2207C51.582 49.9814 49.1895 52.4229 44.4531 52.4229H25.7031C26.2402 51.4707 26.6553 50.4697 26.9482 49.3955H44.3066C47.1143 49.3955 48.5791 47.9062 48.5791 45.1475V22.1982H34.0527C31.3428 22.1982 29.9268 20.8799 29.9268 18.0967V3.39941H18.5254C15.6934 3.39941 14.2529 4.96191 14.2529 7.64746V30.084C13.6426 30.0107 13.1787 29.9863 12.666 29.9863C12.1777 29.9863 11.7139 30.0107 11.2256 30.0596ZM32.7832 17.7793C32.7832 18.9023 33.2471 19.3418 34.3701 19.3418H47.9688L32.7832 4.00977V17.7793ZM12.7393 57.1104C6.09863 57.1104 0.605469 51.6416 0.605469 44.9766C0.605469 38.3359 6.09863 32.8428 12.7393 32.8428C19.4043 32.8428 24.873 38.3115 24.873 44.9766C24.873 51.6172 19.3311 57.1104 12.7393 57.1104ZM12.7393 52.667C13.5449 52.667 14.0332 52.1299 14.0332 51.373V46.2705H19.1113C19.8926 46.2705 20.4297 45.7822 20.4297 44.9766C20.4297 44.1709 19.8926 43.6582 19.1113 43.6582H14.0332V38.6045C14.0332 37.8477 13.5449 37.2861 12.7393 37.2861C11.9336 37.2861 11.4209 37.8477 11.4209 38.6045V43.6582H6.34277C5.58594 43.6582 5.02441 44.1709 5.02441 44.9766C5.02441 45.7822 5.58594 46.2705 6.34277 46.2705H11.4209V51.373C11.4209 52.1299 11.9336 52.667 12.7393 52.667Z" fill="white"/>
</svg>
