<svg width="116" height="116" viewBox="0 0 116 116" fill="none" xmlns="http://www.w3.org/2000/svg">
<path d="M110.072 61.6579C113.235 61.8801 115.706 64.6373 115.172 67.7636C113.971 74.7979 111.479 81.5671 107.805 87.7231C103.148 95.5271 96.7216 102.127 89.0451 106.992C81.3685 111.856 72.6563 114.849 63.6108 115.728C56.4755 116.421 49.2903 115.785 42.4165 113.867C39.3616 113.015 37.9234 109.604 39.0733 106.648C40.2233 103.692 43.5681 102.212 46.6432 102.989C51.8033 104.291 57.1633 104.7 62.4887 104.182C69.725 103.479 76.6948 101.085 82.8361 97.1935C88.9773 93.3019 94.1181 88.0217 97.844 81.7785C100.586 77.184 102.505 72.1627 103.531 66.9405C104.142 63.8284 106.908 61.4356 110.072 61.6579Z" fill="#DA2591"/>
<path d="M38.0255 9.77283C36.8119 6.84268 38.176 3.40083 41.2118 2.48282C48.5448 0.265329 56.2637 -0.48297 63.9223 0.303153C73.4903 1.28526 82.6638 4.63141 90.6171 10.0404C98.5703 15.4493 105.054 22.7512 109.483 31.2887C113.029 38.1226 115.169 45.5763 115.802 53.2111C116.064 56.3719 113.364 58.9054 110.193 58.8535C107.022 58.8016 104.473 56.1789 104.133 53.0257C103.517 47.3177 101.846 41.7564 99.1865 36.631C95.6428 29.801 90.4562 23.9594 84.0936 19.6323C77.7311 15.3051 70.3922 12.6282 62.7379 11.8425C56.9938 11.2529 51.2074 11.7422 45.6727 13.2675C42.6152 14.1101 39.2391 12.703 38.0255 9.77283Z" fill="#029659"/>
<path d="M37.0334 105.804C35.7595 108.709 32.3317 110.108 29.5674 108.553C23.1722 104.956 17.5018 100.169 12.871 94.4332C7.0347 87.2038 3.02056 78.6782 1.16651 69.5739C-0.687539 60.4696 -0.327232 51.0531 2.2171 42.1171C4.23588 35.0268 7.58273 28.4038 12.062 22.5924C13.9981 20.0804 17.7 20.0274 20.0083 22.2024C22.3166 24.3773 22.4331 28.033 20.5598 30.5922C17.3213 35.016 14.8833 39.9916 13.3737 45.2936C11.3382 52.4425 11.05 59.9756 12.5332 67.2591C14.0164 74.5425 17.2278 81.3631 21.8968 87.1465C25.3597 91.436 29.5493 95.0618 34.2599 97.8669C36.9849 99.4896 38.3073 102.9 37.0334 105.804Z" fill="#2F3DBC"/>
<path d="M21.7374 20.4518C19.5342 18.1705 19.5416 14.4683 22.0295 12.5014C24.1455 10.8285 26.3756 9.30534 28.7035 7.94289C31.4407 6.3409 34.892 7.68075 36.2156 10.5629C37.5391 13.4451 36.2756 16.8774 33.5788 18.5466C32.3956 19.279 31.246 20.0643 30.1333 20.9C27.5975 22.8048 23.9406 22.7332 21.7374 20.4518Z" fill="#CAD54C"/>
</svg>
