<svg width="49" height="60" viewBox="0 0 49 60" fill="none" xmlns="http://www.w3.org/2000/svg">
<path d="M0.976562 52.2969V19.1797C0.976562 14.5859 3.29688 12.2656 7.82031 12.2656H12.3203V7.8125C12.3203 3.21875 14.6641 0.898438 19.1875 0.898438H41.5234C46.0703 0.898438 48.3906 3.24219 48.3906 7.8125V40.9531C48.3906 45.5234 46.0703 47.8672 41.5234 47.8672H37.0234V52.2969C37.0234 56.8672 34.7266 59.2109 30.1797 59.2109H7.82031C3.29688 59.2109 0.976562 56.8906 0.976562 52.2969ZM23.5469 7.20312C23.5469 7.83594 23.9688 8.42188 24.9062 8.42188H35.8281C36.7422 8.42188 37.1641 7.83594 37.1641 7.20312V6.73438C37.1641 6.10156 36.7422 5.51562 35.8281 5.51562H24.9062C23.9688 5.51562 23.5469 6.10156 23.5469 6.73438V7.20312ZM3.88281 52.25C3.88281 54.8984 5.26562 56.3281 7.96094 56.3281H30.0391C32.7344 56.3281 34.1406 54.8984 34.1406 52.25V19.2266C34.1406 16.5781 32.7344 15.1484 30.0391 15.1484H7.96094C5.26562 15.1484 3.88281 16.5781 3.88281 19.2266V52.25ZM8.45312 35.7266C8.45312 35 8.94531 34.5312 9.625 34.5312H21.5781L25.4219 34.6719L22.75 32.2344L20.0312 29.5156C19.7969 29.2812 19.6328 29 19.6328 28.6484C19.6328 28.0156 20.125 27.5234 20.7812 27.5234C21.1094 27.5234 21.3672 27.6406 21.6016 27.875L28.5391 34.8359C28.8438 35.1406 28.9844 35.3984 28.9844 35.7031C28.9844 36.0781 28.8203 36.3594 28.5391 36.6172L21.6016 43.5781C21.3672 43.7891 21.1094 43.9297 20.7812 43.9297C20.125 43.9297 19.6328 43.4141 19.6328 42.7812C19.6328 42.4297 19.7734 42.1484 20.0312 41.9375L22.75 39.1953L25.4219 36.7812L21.5781 36.8984H9.625C8.94531 36.8984 8.45312 36.4062 8.45312 35.7266Z" fill="white"/>
</svg>
